<svg width="66" height="42" viewBox="0 0 66 42" fill="none" xmlns="http://www.w3.org/2000/svg">
<rect width="66" height="42" rx="4" fill="#AA1616"/>
<path d="M20.1098 7.01972V9.40563C19.3039 9.52394 18.7028 9.86573 18.3067 10.431C17.9105 10.9962 17.7125 11.8047 17.7125 12.8563V29.9916C17.7125 30.2939 17.7739 30.616 17.8969 30.9577C18.0335 31.2864 18.2042 31.569 18.4091 31.8056C18.6277 32.0685 18.8599 32.2592 19.1058 32.3775C19.3517 32.4826 19.6864 32.5549 20.1098 32.5944V35C17.4597 35 15.158 34.3362 13.2046 33.0085C11.4834 31.8385 10.1856 30.2676 9.31139 28.2958C8.43713 26.3108 8 23.9643 8 21.2563C8 19.2714 8.28004 17.4244 8.84011 15.7155C9.41384 13.9934 10.2403 12.5014 11.3194 11.2394C12.4123 9.96432 13.7168 8.93897 15.2331 8.16338C16.7631 7.38779 18.2315 7 19.6386 7L20.1098 7.01972ZM21.7286 9.42535V7.03944C22.3979 7.1446 22.9375 7.25634 23.3473 7.37465C23.7708 7.49296 24.5289 7.74272 25.6218 8.12394C26.3184 8.36056 26.7829 8.47887 27.0151 8.47887C27.4113 8.47887 27.7118 8.30798 27.9167 7.9662L28.1831 7.49296C28.347 7.17746 28.6543 7.01972 29.1051 7.01972C29.474 7.01972 29.754 7.12488 29.9452 7.33521C30.1501 7.54554 30.2526 7.85446 30.2526 8.26197V16.4648C30.2526 16.9906 30.1297 17.3718 29.8838 17.6085C29.6379 17.8451 29.3578 17.9634 29.0437 17.9634C28.7158 17.9634 28.4494 17.8648 28.2445 17.6676C28.0533 17.4573 27.8962 17.1221 27.7733 16.662C27.4864 15.6235 27.2064 14.8085 26.9331 14.2169C26.3458 12.9681 25.6764 11.9559 24.9251 11.1803C24.4197 10.6545 23.9142 10.2535 23.4088 9.97746C22.9034 9.68826 22.3433 9.50423 21.7286 9.42535ZM21.7901 35V32.5944C22.8556 32.5155 23.9757 32.1277 25.1505 31.431C25.7789 31.0498 26.3389 30.5437 26.8307 29.9127C27.3225 29.2685 27.6913 28.5653 27.9372 27.8028C28.0738 27.3822 28.2309 27.0864 28.4085 26.9155C28.5997 26.7315 28.8456 26.6394 29.1461 26.6394C29.474 26.6394 29.7472 26.7577 29.9657 26.9944C30.1843 27.231 30.2936 27.5268 30.2936 27.8817C30.2936 28.4732 30.0545 29.1897 29.5764 30.031C29.112 30.8723 28.5109 31.6479 27.7733 32.3577C26.8717 33.2254 25.9428 33.8695 24.9866 34.2901C24.044 34.7108 22.9785 34.9474 21.7901 35Z" fill="white"/>
<path d="M46.7151 7.52661V34.4733H56.4499C56.9459 34.4733 57.3317 34.3878 57.6073 34.2167C57.8691 34.0324 58 33.7758 58 33.4468C58 32.9072 57.7244 32.5518 57.1733 32.3808C56.7186 32.236 56.4568 32.1504 56.3879 32.1241C56.3052 32.0846 56.2225 32.0057 56.1398 31.8872C55.9745 31.6767 55.8918 31.3411 55.8918 30.8804V11.1195C55.8918 10.6589 55.9745 10.3233 56.1398 10.1127C56.2225 9.99426 56.3052 9.92187 56.3879 9.89555C56.4568 9.85607 56.7186 9.76394 57.1733 9.61918C57.7244 9.44809 58 9.09274 58 8.55315C58 8.22413 57.8691 7.97408 57.6073 7.80299C57.3317 7.61874 56.9459 7.52661 56.4499 7.52661H46.7151ZM44.8756 7.52661H36.5462V14.515C36.5462 14.923 36.6289 15.2191 36.7943 15.4033C36.9596 15.5876 37.2214 15.6797 37.5797 15.6797C37.8828 15.6797 38.1033 15.6205 38.241 15.502C38.3788 15.3836 38.5097 15.1401 38.6337 14.7716C39.1573 13.245 39.929 12.0802 40.9486 11.2774C41.9545 10.4746 43.2635 9.99426 44.8756 9.83633V7.52661ZM44.9789 21.8982V19.6082C44.1798 19.2397 43.5873 18.8383 43.2015 18.404C42.8156 17.9697 42.5332 17.3906 42.354 16.6668C42.2438 16.1667 42.0991 15.8245 41.92 15.6402C41.7409 15.4428 41.486 15.3441 41.1553 15.3441C40.7144 15.3441 40.4112 15.5086 40.2459 15.8376C40.1494 16.0087 40.1012 16.397 40.1012 17.0024V24.5238C40.1012 25.1423 40.177 25.57 40.3286 25.8069C40.4663 26.0438 40.7281 26.1623 41.1139 26.1623C41.4309 26.1623 41.6789 26.0702 41.858 25.8859C42.0371 25.7017 42.1818 25.3924 42.292 24.9581C42.5263 24.05 42.8639 23.3525 43.3048 22.8655C43.7319 22.3786 44.29 22.0561 44.9789 21.8982ZM44.8549 34.4733V32.3413C43.9593 32.2097 43.2221 32.0254 42.6434 31.7885C42.0509 31.5516 41.4584 31.1897 40.8659 30.7028C40.2734 30.2158 39.805 29.7157 39.4605 29.2024C39.1022 28.676 38.7646 27.9851 38.4477 27.1296C38.2962 26.7085 38.1377 26.4255 37.9724 26.2807C37.807 26.1228 37.5797 26.0438 37.2903 26.0438C36.9045 26.0438 36.6358 26.1557 36.4842 26.3794C36.3327 26.59 36.2569 26.9651 36.2569 27.5047V34.4733H44.8549Z" fill="white"/>
</svg>
